<?xml version="1.0" standalone="no"?>
<!DOCTYPE svg PUBLIC "-//W3C//DTD SVG 20010904//EN" "http://www.w3.org/TR/2001/REC-SVG-20010904/DTD/svg10.dtd">
<svg xmlns="http://www.w3.org/2000/svg" version="1.0" width="662.000000pt" height="372.000000pt" viewBox="0 0 662.000000 372.000000" preserveAspectRatio="xMidYMid meet">
<metadata>
Created by potrace 1.16, written by Peter Selinger 2001-2019
<meta name="Producer" content="Online-Convert"/></metadata>
<g transform="translate(0.000000,372.000000) scale(0.100000,-0.100000)" fill="#000000" stroke="none">
<path d="M1810 2564 c-116 -20 -153 -29 -205 -46 -72 -25 -191 -83 -200 -99 -4 -6 -3 -15 3 -21 8 -8 34 1 89 30 116 60 206 83 355 89 108 5 141 2 221 -16 307 -71 548 -305 627 -610 55 -207 27 -432 -74 -617 -29 -52 -33 -64 -21 -74 30 -25 119 164 151 320 23 117 15 282 -20 403 -82 278 -276 489 -538 587 -109 40 -308 68 -388 54z"/>
<path d="M1741 2470 c-96 -20 -281 -98 -281 -118 0 -4 72 -79 159 -166 l159 -159 39 32 c47 37 138 71 193 71 l40 0 0 -40 c0 -38 -2 -40 -30 -40 -42 0 -133 -36 -158 -63 l-22 -23 24 -23 c17 -16 26 -19 31 -11 15 24 90 50 148 50 103 0 189 -64 217 -161 20 -70 22 -69 -97 -69 l-108 0 250 -250 c137 -137 253 -250 256 -250 12 0 78 148 99 221 99 359 -70 747 -400 918 -125 65 -197 83 -345 87 -71 2 -150 -1 -174 -6z"/>
<path d="M3652 2140 c-88 -18 -128 -72 -120 -161 6 -63 34 -94 128 -139 71 -34 91 -59 70 -85 -18 -21 -100 -19 -160 4 l-50 19 0 -58 c0 -56 1 -58 33 -71 18 -8 67 -14 117 -14 98 0 139 17 178 76 20 28 23 43 20 87 -6 65 -34 98 -128 145 -68 34 -87 54 -77 81 8 21 84 22 132 1 l35 -14 15 35 c25 59 23 67 -15 80 -53 18 -130 23 -178 14z"/>
<path d="M3020 1889 l0 -251 133 4 c119 3 136 6 177 28 92 52 136 170 110 295 -10 50 -20 68 -59 106 -56 56 -103 69 -256 69 l-105 0 0 -251z m242 130 c29 -16 48 -65 48 -124 0 -99 -37 -146 -117 -149 l-38 -1 -3 134 c-1 74 0 141 3 149 4 10 16 12 48 7 23 -4 50 -11 59 -16z"/>
<path d="M3984 1890 l-81 -250 72 0 72 0 13 45 13 46 85 -3 85 -3 11 -40 12 -40 73 -3 c57 -2 72 0 69 10 -3 7 -41 120 -84 251 l-79 237 -90 0 -90 0 -81 -250z"/>
<path d="M3020 1356 l0 -86 39 0 c56 0 95 35 95 84 0 49 -29 77 -88 83 l-46 6 0 -87z"/>
<path d="M3266 1384 c-18 -18 -21 -40 -6 -49 11 -7 3 -52 -12 -71 -14 -18 1 -41 30 -47 40 -8 77 13 77 43 0 22 -5 25 -38 28 -40 3 -47 24 -11 31 29 5 46 23 41 43 -3 10 -1 18 4 18 5 0 9 5 9 10 0 16 -77 12 -94 -6z"/>
<path d="M4986 1384 c-18 -18 -21 -40 -6 -49 11 -7 3 -52 -12 -71 -25 -33 28 -61 81 -43 27 9 32 16 29 38 -3 22 -8 26 -41 29 -40 3 -47 24 -11 31 29 5 46 23 41 43 -3 10 -1 18 4 18 5 0 9 5 9 10 0 16 -77 12 -94 -6z"/>
</g>
</svg>
